<?xml version="1.0" encoding="UTF-8" standalone="no"?>
<svg
   width="676.16522"
   zoomAndPan="magnify"
   viewBox="0 0 507.12392 665.71783"
   height="887.62378"
   preserveAspectRatio="xMidYMid"
   version="1.0"
   id="svg15"
   sodipodi:docname="logo.svg"
   xmlns:inkscape="http://www.inkscape.org/namespaces/inkscape"
   xmlns:sodipodi="http://sodipodi.sourceforge.net/DTD/sodipodi-0.dtd"
   xmlns="http://www.w3.org/2000/svg"
   xmlns:svg="http://www.w3.org/2000/svg">
  <defs
     id="defs15" />
  <sodipodi:namedview
     id="namedview15"
     pagecolor="#ffffff"
     bordercolor="#000000"
     borderopacity="0.25"
     inkscape:showpageshadow="2"
     inkscape:pageopacity="0.0"
     inkscape:pagecheckerboard="0"
     inkscape:deskcolor="#d1d1d1" />
  <path
     fill="#a6e0ce"
     d="m 98.715726,332.43936 72.820314,-48.47265 c 0.79687,-0.53125 1.64062,-0.97657 2.52344,-1.34375 0.88672,-0.36328 1.79687,-0.64063 2.73828,-0.82422 0.9375,-0.1836 1.88672,-0.27735 2.84375,-0.27344 0.95703,0 1.90625,0.0937 2.84375,0.28516 0.9375,0.1875 1.85156,0.46484 2.73437,0.83203 0.88282,0.36719 1.72266,0.82031 2.51953,1.35156 0.79297,0.53516 1.52735,1.14063 2.20313,1.81641 0.67578,0.67968 1.28125,1.41797 1.8125,2.21484 0.52734,0.79688 0.97656,1.63672 1.33984,2.52344 0.36719,0.88281 0.64063,1.79687 0.82422,2.73437 0.1875,0.94141 0.27735,1.88672 0.27735,2.84766 -0.004,0.95703 -0.0977,1.90234 -0.28516,2.84375 -0.1875,0.9375 -0.46875,1.84766 -0.83594,2.73047 -0.36719,0.88672 -0.8164,1.72656 -1.35156,2.51953 -0.53125,0.79687 -1.13672,1.53125 -1.81641,2.20703 -0.67968,0.67578 -1.41406,1.27734 -2.21093,1.80859 l -72.82422,48.47266 c -0.79688,0.53125 -1.63672,0.98047 -2.52344,1.34375 -0.88281,0.36719 -1.79688,0.64063 -2.73438,0.82422 -0.9414,0.1875 -1.88671,0.27734 -2.84375,0.27734 -0.96093,-0.004 -1.90625,-0.0976 -2.84375,-0.28515 -0.9414,-0.1875 -1.85156,-0.46875 -2.73437,-0.83594 -0.88672,-0.36719 -1.722664,-0.81641 -2.519534,-1.35156 -0.79688,-0.53125 -1.53125,-1.13672 -2.20703,-1.81641 -0.67578,-0.67969 -1.27735,-1.41406 -1.8086,-2.21094 -0.53125,-0.79687 -0.97656,-1.64062 -1.34375,-2.52343 -0.36328,-0.88672 -0.64062,-1.79688 -0.82422,-2.73829 -0.18359,-0.9375 -0.27734,-1.88671 -0.27343,-2.84375 0,-0.95703 0.0937,-1.90625 0.28515,-2.84375 0.1875,-0.9375 0.46485,-1.85156 0.83203,-2.73437 0.36719,-0.88281 0.82032,-1.72266 1.35157,-2.51953 0.53515,-0.79297 1.14062,-1.52735 1.8164,-2.20313 0.67969,-0.67578 1.41797,-1.28125 2.21485,-1.8125 z m 0,0"
     fill-opacity="1"
     fill-rule="nonzero"
     id="path2"
     inkscape:export-filename="LogoWeb_MVB.svg"
     inkscape:export-xdpi="96"
     inkscape:export-ydpi="96" />
  <path
     stroke-linecap="round"
     fill-opacity="1"
     fill="#a6e0ce"
     fill-rule="nonzero"
     stroke-linejoin="round"
     d="M 21.836818,401.13077 C 8.4501012,381.0214 13.899325,353.86905 34.008704,340.48233 c 20.10938,-13.38671 47.261722,-7.93358 60.648442,12.1758 13.386714,20.10938 7.937494,47.26172 -12.17189,60.64844 -20.109378,13.38281 -47.26563,7.93358 -60.648438,-12.1758"
     stroke="#a6e0ce"
     stroke-width="29.16"
     stroke-opacity="1"
     stroke-miterlimit="4"
     id="path3" />
  <path
     stroke-linecap="round"
     fill-opacity="1"
     fill="#a6e0ce"
     fill-rule="nonzero"
     stroke-linejoin="round"
     d="m 289.24703,223.1269 c 13.38672,20.10938 7.93359,47.26173 -12.17579,60.64844 -20.10548,13.38672 -47.26173,7.93359 -60.64454,-12.17579 -13.38671,-20.10938 -7.93749,-47.26172 12.17189,-60.64453 20.10938,-13.38672 47.26172,-7.93749 60.64844,12.17188"
     stroke="#a6e0ce"
     stroke-width="29.16"
     stroke-opacity="1"
     stroke-miterlimit="4"
     id="path4" />
  <path
     stroke-linecap="round"
     fill="none"
     stroke-linejoin="miter"
     d="M 253.65713,486.63077 V 116.63859"
     stroke="#eab075"
     stroke-width="29.16"
     stroke-opacity="1"
     stroke-miterlimit="4"
     id="path5" />
  <path
     stroke-linecap="round"
     fill-opacity="1"
     fill="#eab075"
     fill-rule="nonzero"
     stroke-linejoin="round"
     d="m 253.65713,14.579998 c 24.15625,0 43.74219,19.582029 43.74219,43.742189 0,24.15625 -19.58594,43.738283 -43.74219,43.738283 -24.15625,0 -43.73828,-19.582033 -43.73828,-43.738283 0,-24.16016 19.58203,-43.742189 43.73828,-43.742189"
     stroke="#eab075"
     stroke-width="29.16"
     stroke-opacity="1"
     stroke-miterlimit="4"
     id="path6" />
  <path
     fill="#f46e7f"
     d="m 107.25088,554.57608 67.50782,-55.64062 c 0.73828,-0.60547 1.52734,-1.13672 2.37109,-1.58985 0.84375,-0.45312 1.72266,-0.82031 2.63672,-1.10156 0.91797,-0.27734 1.85156,-0.46484 2.80469,-0.5625 0.95312,-0.0937 1.90625,-0.0977 2.85937,-0.004 0.94922,0.0898 1.88672,0.27344 2.80078,0.55079 0.91797,0.27343 1.80078,0.63671 2.64453,1.08593 0.84375,0.44922 1.63672,0.98047 2.37891,1.58594 0.74219,0.60547 1.41797,1.27734 2.02734,2.01563 0.60938,0.73828 1.14063,1.53125 1.59375,2.37109 0.44922,0.84375 0.81641,1.72266 1.09766,2.64062 0.28125,0.91407 0.46875,1.84766 0.5625,2.80079 0.0977,0.95312 0.0977,1.90625 0.008,2.85937 -0.0937,0.95313 -0.27734,1.88672 -0.55469,2.80469 -0.27343,0.91406 -0.63671,1.79687 -1.08593,2.64062 -0.44922,0.84766 -0.97657,1.64063 -1.58203,2.38282 -0.60547,0.73828 -1.28125,1.41406 -2.01954,2.02343 l -67.5039,55.63672 c -0.74219,0.60938 -1.53125,1.14063 -2.375,1.59375 -0.84375,0.45313 -1.72266,0.82031 -2.63672,1.10156 -0.91797,0.27735 -1.85156,0.46485 -2.80469,0.5625 -0.95312,0.0937 -1.90234,0.0977 -2.85547,0.004 -0.95312,-0.0898 -1.89062,-0.27344 -2.80468,-0.55078 -0.91797,-0.27734 -1.80079,-0.63672 -2.64454,-1.08594 -0.84375,-0.45312 -1.63671,-0.98047 -2.3789,-1.58594 -0.74219,-0.60546 -1.41797,-1.27734 -2.02735,-2.01562 -0.60546,-0.73828 -1.13671,-1.53125 -1.58984,-2.375 -0.45312,-0.83984 -0.82031,-1.72266 -1.10156,-2.63672 -0.27735,-0.91406 -0.46875,-1.84766 -0.5625,-2.80078 -0.0977,-0.95313 -0.0977,-1.90625 -0.008,-2.85938 0.0937,-0.95312 0.27734,-1.88671 0.55468,-2.80468 0.27344,-0.91797 0.63672,-1.79688 1.08594,-2.64063 0.44922,-0.84765 0.97656,-1.64062 1.58594,-2.38281 0.60547,-0.73828 1.27734,-1.41406 2.01562,-2.02344 z m 0,0"
     fill-opacity="1"
     fill-rule="nonzero"
     id="path7" />
  <path
     stroke-linecap="round"
     fill-opacity="1"
     fill="#f46e7f"
     fill-rule="nonzero"
     stroke-linejoin="round"
     d="m 37.766507,630.73623 c -15.367193,-18.64062 -12.707041,-46.20703 5.933584,-61.57032 18.640625,-15.36329 46.207035,-12.70704 61.570329,5.93358 15.36719,18.64063 12.70704,46.20704 -5.933584,61.57424 -18.64063,15.36328 -46.207042,12.70704 -61.570329,-5.9375"
     stroke="#f46e7f"
     stroke-width="29.16"
     stroke-opacity="1"
     stroke-miterlimit="4"
     id="path8" />
  <path
     stroke-linecap="round"
     fill-opacity="1"
     fill="#f46e7f"
     fill-rule="nonzero"
     stroke-linejoin="round"
     d="m 288.0673,424.44319 c 15.36719,18.64062 12.70704,46.20703 -5.93359,61.57032 -18.64062,15.36329 -46.20703,12.70704 -61.57032,-5.93358 -15.36719,-18.64063 -12.70704,-46.20704 5.93358,-61.57423 18.64063,-15.36329 46.20704,-12.70705 61.57033,5.93749"
     stroke="#f46e7f"
     stroke-width="29.16"
     stroke-opacity="1"
     stroke-miterlimit="4"
     id="path9" />
  <path
     fill="#a6e0ce"
     d="m 407.98526,164.00577 -73.28125,47.77734 c -0.80078,0.52344 -1.64844,0.96094 -2.53516,1.32032 -0.89062,0.35546 -1.80469,0.62109 -2.74609,0.79687 -0.94141,0.17578 -1.89063,0.25781 -2.84766,0.25 -0.95703,-0.0117 -1.90234,-0.11719 -2.83984,-0.3125 -0.9375,-0.19922 -1.84375,-0.48437 -2.72656,-0.86328 -0.87891,-0.375 -1.71485,-0.83203 -2.50391,-1.375 -0.78906,-0.53906 -1.51953,-1.15234 -2.1875,-1.83594 -0.67188,-0.6875 -1.26563,-1.42969 -1.78906,-2.23047 -0.52344,-0.80468 -0.96485,-1.64843 -1.32032,-2.53515 -0.35546,-0.89063 -0.62109,-1.80469 -0.79687,-2.7461 -0.17578,-0.9414 -0.26172,-1.89062 -0.25,-2.84765 0.0117,-0.95703 0.11719,-1.90235 0.3125,-2.83985 0.19922,-0.9375 0.48437,-1.84765 0.85937,-2.72656 0.37891,-0.87891 0.83594,-1.71484 1.37891,-2.50391 0.53906,-0.79296 1.15234,-1.51953 1.83594,-2.1914 0.68359,-0.66797 1.42969,-1.26563 2.23047,-1.78516 l 73.28125,-47.77734 c 0.80078,-0.52344 1.64843,-0.96485 2.53515,-1.32031 0.89063,-0.35547 1.80469,-0.6211 2.7461,-0.79688 0.9375,-0.17578 1.88672,-0.26172 2.84765,-0.25 0.95703,0.0117 1.90235,0.11719 2.83985,0.3125 0.9375,0.19922 1.84375,0.48438 2.72656,0.85938 0.87891,0.3789 1.71484,0.83593 2.50391,1.3789 0.78906,0.53906 1.51953,1.15235 2.1875,1.83594 0.67187,0.68359 1.26562,1.42969 1.78906,2.23047 0.52344,0.80078 0.96094,1.64844 1.32031,2.53515 0.35547,0.89063 0.62109,1.80469 0.79688,2.7461 0.17578,0.9414 0.25781,1.88672 0.25,2.84765 -0.0117,0.95704 -0.11719,1.90235 -0.3125,2.83985 -0.19922,0.9375 -0.48438,1.84375 -0.86329,2.72656 -0.375,0.87891 -0.83203,1.71484 -1.375,2.50391 -0.53906,0.78906 -1.15234,1.51953 -1.83593,2.1875 -0.6875,0.67187 -1.42969,1.26562 -2.23047,1.78906 z m 0,0"
     fill-opacity="1"
     fill-rule="nonzero"
     id="path10" />
  <path
     stroke-linecap="round"
     fill-opacity="1"
     fill="#a6e0ce"
     fill-rule="nonzero"
     stroke-linejoin="round"
     d="m 485.51651,96.052647 c 13.19141,20.234373 7.48438,47.335923 -12.7539,60.527333 -20.23437,13.19531 -47.33202,7.48437 -60.52733,-12.75 -13.1914,-20.23827 -7.48437,-47.335923 12.7539,-60.531233 20.23437,-13.19141 47.33593,-7.48047 60.52733,12.7539"
     stroke="#a6e0ce"
     stroke-width="29.16"
     stroke-opacity="1"
     stroke-miterlimit="4"
     id="path11" />
  <path
     stroke-linecap="round"
     fill-opacity="1"
     fill="#a6e0ce"
     fill-rule="nonzero"
     stroke-linejoin="round"
     d="m 216.41893,271.49793 c -13.19531,-20.23828 -7.48437,-47.33593 12.75,-60.53124 20.23827,-13.1914 47.33592,-7.48437 60.53123,12.7539 13.19141,20.23437 7.48438,47.33593 -12.7539,60.52733 -20.23437,13.19531 -47.33592,7.48437 -60.52733,-12.74999"
     stroke="#a6e0ce"
     stroke-width="29.16"
     stroke-opacity="1"
     stroke-miterlimit="4"
     id="path12" />
  <path
     fill="#f46e7f"
     d="m 378.74307,580.2128 -66.00781,-57.41406 c -0.71875,-0.625 -1.375,-1.32031 -1.96094,-2.07813 -0.58594,-0.7539 -1.09375,-1.5625 -1.51953,-2.41797 -0.42578,-0.85937 -0.76563,-1.75 -1.01563,-2.67187 -0.2539,-0.92578 -0.41015,-1.86328 -0.47656,-2.82031 -0.0664,-0.95313 -0.0391,-1.90625 0.082,-2.85547 0.1211,-0.94922 0.33203,-1.87891 0.63672,-2.78516 0.30469,-0.91015 0.69141,-1.77734 1.16797,-2.60937 0.47656,-0.83203 1.02734,-1.60547 1.65625,-2.32813 0.62891,-0.72265 1.32031,-1.3789 2.07813,-1.96484 0.75781,-0.58594 1.5625,-1.08985 2.42187,-1.51953 0.85547,-0.42578 1.74609,-0.76563 2.66797,-1.01563 0.92578,-0.2539 1.86328,-0.41015 2.82031,-0.47656 0.95313,-0.0664 1.90625,-0.0391 2.85547,0.082 0.94922,0.12109 1.87891,0.33203 2.78516,0.63672 0.91015,0.30469 1.77734,0.69531 2.60937,1.16797 0.83203,0.47656 1.60938,1.02734 2.33203,1.65625 l 66.00391,57.41406 c 0.72266,0.625 1.375,1.32031 1.96094,2.07813 0.58593,0.7539 1.09375,1.5625 1.51953,2.41796 0.42578,0.85938 0.76562,1.75 1.01562,2.67188 0.25391,0.92578 0.41407,1.86328 0.48047,2.82031 0.0664,0.95313 0.0391,1.90625 -0.082,2.85547 -0.12109,0.94922 -0.33594,1.87891 -0.64062,2.78516 -0.30079,0.91015 -0.69141,1.77734 -1.16797,2.60937 -0.47657,0.83203 -1.02735,1.60938 -1.65625,2.32813 -0.62891,0.72265 -1.32032,1.3789 -2.07813,1.96484 -0.75781,0.58594 -1.5625,1.08984 -2.41797,1.51953 -0.85937,0.42578 -1.75,0.76563 -2.67187,1.01563 -0.92578,0.2539 -1.86328,0.41015 -2.82031,0.47656 -0.95313,0.0664 -1.90625,0.0391 -2.85547,-0.082 -0.94922,-0.1211 -1.87891,-0.33203 -2.78516,-0.63672 -0.91016,-0.30469 -1.77734,-0.69531 -2.60937,-1.16797 -0.83204,-0.47656 -1.60938,-1.02734 -2.32813,-1.65625 z m 0,0"
     fill-opacity="1"
     fill-rule="nonzero"
     id="path13" />
  <path
     stroke-linecap="round"
     fill-opacity="1"
     fill="#f46e7f"
     fill-rule="nonzero"
     stroke-linejoin="round"
     d="m 465.31338,636.19327 c -15.85156,18.22657 -43.48046,20.14845 -61.70702,4.29689 -18.22657,-15.85546 -20.14845,-43.48436 -4.29689,-61.71092 15.85546,-18.22657 43.48436,-20.14845 61.71092,-4.29299 18.22657,15.85156 20.14845,43.48046 4.29299,61.70702"
     stroke="#f46e7f"
     stroke-width="29.16"
     stroke-opacity="1"
     stroke-miterlimit="4"
     id="path14" />
  <path
     stroke-linecap="round"
     fill-opacity="1"
     fill="#f46e7f"
     fill-rule="nonzero"
     stroke-linejoin="round"
     d="m 220.58289,423.31837 c 15.85547,-18.22656 43.48046,-20.14844 61.70702,-4.29689 18.22657,15.85546 20.15236,43.48436 4.29689,61.71093 -15.85546,18.22656 -43.48045,20.14844 -61.70702,4.29298 -18.22656,-15.85155 -20.15235,-43.48045 -4.29689,-61.70702"
     stroke="#f46e7f"
     stroke-width="29.16"
     stroke-opacity="1"
     stroke-miterlimit="4"
     id="path15" />
</svg>
